<?xml version="1.0" encoding="UTF-8" standalone="no"?>
<!DOCTYPE svg PUBLIC "-//W3C//DTD SVG 1.1//EN" "http://www.w3.org/Graphics/SVG/1.1/DTD/svg11.dtd">
<svg xmlns="http://www.w3.org/2000/svg" version="1.1" viewBox="0.00 0.00 1420.00 1475.00">
<path fill="#00275d" d="
  M 234.19 218.94
  C 359.45 97.04 522.05 25.93 696.32 15.55
  Q 705.10 15.03 716.32 15.04
  C 746.82 15.08 777.32 14.53 807.82 14.52
  Q 1072.54 14.47 1337.25 14.54
  Q 1341.39 14.54 1345.24 14.85
  A 0.56 0.56 0.0 0 1 1345.59 15.80
  Q 1242.31 119.06 1139.58 222.33
  Q 1134.93 227.00 1130.19 231.59
  C 1126.95 234.71 1125.12 233.51 1121.31 233.51
  Q 958.78 233.49 796.25 233.51
  C 622.19 233.54 463.24 321.41 370.39 467.91
  C 276.99 615.29 267.43 800.62 343.02 957.71
  C 423.98 1125.96 595.03 1235.68 780.81 1240.53
  Q 787.10 1240.69 800.82 1240.70
  Q 990.13 1240.80 1179.44 1240.73
  C 1181.56 1240.73 1182.56 1241.66 1183.94 1243.05
  Q 1291.04 1350.83 1398.76 1458.66
  A 0.49 0.49 0.0 0 1 1398.41 1459.50
  Q 1065.72 1459.50 732.75 1459.50
  C 441.62 1459.50 183.18 1281.75 71.04 1015.70
  C 17.36 888.33 2.32 744.12 26.75 609.00
  C 53.63 460.28 125.84 324.37 234.19 218.94
  Z"
/>
<rect fill="#0078ed" x="509.75" y="603.50" width="895.24" height="262.50" rx="0.57"/>
</svg>
