<?xml version="1.0" encoding="UTF-8" standalone="no"?>
<!DOCTYPE svg PUBLIC "-//W3C//DTD SVG 1.1//EN" "http://www.w3.org/Graphics/SVG/1.1/DTD/svg11.dtd">
<svg xmlns="http://www.w3.org/2000/svg" version="1.1" viewBox="0.00 0.00 1563.00 264.00">
<path fill="#dcddde" d="
  M 205.40 219.85
  L 242.18 256.29
  Q 243.32 257.41 241.72 257.42
  Q 185.82 257.67 130.99 257.36
  Q 118.30 257.28 111.05 256.31
  C 19.86 244.12 -27.76 139.90 23.79 63.00
  C 44.40 32.25 76.95 12.96 113.54 8.39
  Q 120.83 7.48 133.49 7.49
  Q 183.35 7.52 233.08 7.49
  Q 233.88 7.49 233.31 8.06
  L 196.20 45.18
  A 1.14 1.13 22.9 0 1 195.41 45.50
  Q 166.39 45.48 137.51 45.56
  C 82.99 45.71 42.07 95.57 52.33 148.94
  C 59.20 184.65 87.52 212.16 123.38 218.29
  Q 130.19 219.46 143.32 219.48
  Q 173.92 219.53 204.52 219.49
  A 1.27 1.25 66.7 0 1 205.40 219.85
  Z"
/>
<path fill="#dcddde" d="
  M 1332.30 71.25
  L 1344.09 71.25
  A 2.62 2.62 0.0 0 1 1346.51 72.87
  L 1350.05 81.46
  A 3.29 3.29 0.0 0 1 1347.01 86.00
  L 1326.34 86.00
  A 0.74 0.73 -78.6 0 0 1325.66 86.46
  L 1319.84 100.83
  A 1.87 1.86 -79.0 0 1 1318.11 102.00
  L 1306.48 102.00
  A 2.21 2.21 0.0 0 1 1304.43 98.98
  Q 1318.76 63.21 1333.02 28.05
  C 1336.43 19.64 1347.65 17.45 1353.71 24.54
  Q 1355.10 26.17 1356.77 30.26
  Q 1370.63 64.38 1384.68 99.14
  A 2.08 2.08 0.0 0 1 1382.75 102.00
  L 1371.75 102.00
  A 2.62 2.62 0.0 0 1 1369.32 100.36
  L 1344.92 39.52
  A 0.41 0.40 -45.5 0 0 1344.17 39.53
  L 1331.89 70.65
  Q 1331.66 71.25 1332.30 71.25
  Z"
/>
<rect fill="#0078ed" x="323.30" y="21.01" width="61.70" height="14.74" rx="3.18"/>
<rect fill="#0078ed" x="515.78" y="21.01" width="61.72" height="14.74" rx="3.23"/>
<rect fill="#dcddde" x="1405.29" y="21.01" width="61.70" height="14.74" rx="3.14"/>
<path fill="#0078ed" d="
  M 481.25 40.01
  A 0.31 0.30 -34.2 0 0 480.66 39.90
  Q 471.04 63.52 461.32 86.92
  C 458.75 93.10 454.28 93.27 447.97 93.00
  C 442.23 92.75 440.14 89.53 438.01 84.25
  Q 429.05 62.05 420.19 40.06
  A 0.48 0.48 0.0 0 0 419.27 40.24
  L 419.24 99.50
  A 2.50 2.49 -90.0 0 1 416.75 102.00
  L 408.20 102.00
  A 2.93 2.93 0.0 0 1 405.27 99.08
  Q 405.23 67.09 405.18 35.25
  C 405.17 30.20 405.25 22.55 411.49 21.65
  C 417.17 20.83 428.09 19.64 430.64 26.04
  Q 440.18 50.01 449.67 73.69
  A 0.87 0.86 -44.9 0 0 451.27 73.69
  Q 461.02 49.59 470.44 25.69
  C 472.62 20.16 481.11 21.12 485.84 21.27
  C 491.89 21.46 495.25 23.99 495.26 30.20
  Q 495.32 64.79 495.21 99.51
  A 2.50 2.49 -0.0 0 1 492.71 102.00
  L 484.22 102.00
  A 2.97 2.97 0.0 0 1 481.25 99.03
  L 481.25 40.01
  Z"
/>
<path fill="#0078ed" d="
  M 649.99 69.04
  L 666.97 98.23
  A 2.51 2.51 0.0 0 1 664.80 102.00
  L 653.50 102.00
  A 2.54 2.54 0.0 0 1 651.29 100.71
  L 633.49 69.20
  Q 633.24 68.75 632.72 68.75
  L 613.13 68.75
  Q 612.50 68.75 612.50 69.38
  L 612.50 99.37
  A 2.63 2.62 -90.0 0 1 609.88 102.00
  L 600.88 102.00
  A 2.87 2.87 0.0 0 1 598.01 99.13
  L 598.02 56.84
  A 2.57 2.57 0.0 0 1 600.59 54.27
  Q 621.92 54.25 643.50 54.14
  Q 648.95 54.11 649.88 48.67
  C 650.78 43.39 650.76 35.86 643.43 35.82
  Q 621.97 35.71 600.62 35.76
  A 2.33 2.32 -4.3 0 1 598.32 33.79
  C 597.93 31.33 596.66 21.54 600.81 21.49
  Q 622.78 21.23 644.75 21.44
  C 654.65 21.53 660.81 24.19 663.49 34.76
  C 666.04 44.78 665.91 63.63 653.09 67.49
  Q 651.68 67.92 650.27 68.33
  Q 649.68 68.51 649.99 69.04
  Z"
/>
<path fill="#0078ed" d="
  M 688.65 55.33
  C 686.65 44.18 685.66 21.25 703.32 21.22
  Q 724.49 21.18 745.80 21.29
  A 2.66 2.66 0.0 0 1 748.44 23.93
  L 748.49 33.12
  A 2.61 2.61 0.0 0 1 745.88 35.75
  L 706.39 35.75
  Q 702.47 35.75 702.49 39.67
  L 702.54 50.60
  A 3.18 3.18 0.0 0 0 705.74 53.77
  Q 719.53 53.68 734.23 53.83
  C 752.25 54.01 750.65 71.73 750.47 84.00
  C 750.38 90.75 747.80 98.14 741.22 100.81
  Q 738.41 101.95 730.52 101.98
  Q 710.39 102.04 690.54 101.98
  A 2.55 2.54 90.0 0 1 688.00 99.43
  L 688.00 90.62
  Q 688.00 87.50 691.13 87.50
  L 732.60 87.50
  A 3.37 3.37 0.0 0 0 735.97 84.15
  L 736.02 71.84
  A 3.58 3.58 0.0 0 0 732.44 68.25
  Q 717.12 68.25 701.51 68.23
  C 693.45 68.22 690.00 62.85 688.65 55.33
  Z"
/>
<path fill="#0078ed" d="
  M 779.77 25.68
  C 788.09 19.20 810.87 20.81 823.22 21.74
  C 839.09 22.93 842.82 35.03 843.10 48.82
  Q 843.33 60.15 843.26 71.50
  C 843.16 86.55 840.28 101.40 821.92 101.84
  Q 811.63 102.10 801.31 101.99
  Q 788.97 101.86 786.28 101.13
  C 775.89 98.32 772.20 89.33 771.54 78.57
  Q 770.47 61.02 771.55 43.51
  C 771.98 36.62 774.27 29.96 779.77 25.68
  Z
  M 828.48 78.70
  L 828.48 44.60
  A 8.85 8.85 0.0 0 0 819.63 35.75
  L 794.75 35.75
  A 9.44 9.19 90.0 0 0 785.56 45.19
  L 785.56 78.11
  A 9.44 9.19 -90.0 0 0 794.75 87.55
  L 819.63 87.55
  A 8.85 8.85 0.0 0 0 828.48 78.70
  Z"
/>
<path fill="#0078ed" d="
  M 921.75 83.47
  L 921.75 23.91
  A 2.61 2.61 0.0 0 1 924.34 21.30
  L 932.74 21.23
  Q 936.06 21.20 936.04 24.52
  Q 935.87 57.81 935.69 90.50
  C 935.65 97.49 934.46 101.90 926.41 101.99
  C 919.84 102.07 914.75 103.32 910.89 96.51
  Q 894.76 68.15 878.88 39.88
  A 0.45 0.44 -59.7 0 0 878.05 40.10
  L 877.98 99.39
  A 2.62 2.62 0.0 0 1 875.36 102.00
  L 866.71 102.00
  A 2.94 2.94 0.0 0 1 863.77 99.06
  Q 863.73 66.47 863.76 34.25
  C 863.77 20.63 869.28 20.99 880.57 21.40
  Q 886.19 21.61 888.63 25.93
  Q 904.81 54.67 920.94 83.68
  A 0.43 0.43 0.0 0 0 921.75 83.47
  Z"
/>
<path fill="#dcddde" d="
  M 1026.23 39.65
  A 0.23 0.23 0.0 0 0 1025.79 39.73
  L 1025.66 99.76
  A 2.24 2.24 0.0 0 1 1023.42 102.00
  L 1014.45 102.00
  A 2.95 2.94 89.9 0 1 1011.51 99.06
  Q 1011.48 66.44 1011.51 34.00
  C 1011.51 27.82 1011.88 22.01 1019.68 21.35
  C 1026.48 20.77 1034.53 19.83 1037.37 27.01
  Q 1046.57 50.24 1055.93 73.69
  A 0.86 0.86 0.0 0 0 1057.52 73.69
  Q 1065.93 52.74 1074.42 31.43
  C 1076.80 25.47 1077.37 22.05 1083.47 21.27
  Q 1085.71 20.99 1092.84 21.30
  C 1098.44 21.55 1101.39 24.28 1101.41 29.95
  Q 1101.56 64.37 1101.48 99.53
  A 2.47 2.47 0.0 0 1 1099.01 102.00
  L 1090.53 102.00
  A 3.03 3.03 0.0 0 1 1087.50 98.97
  L 1087.50 40.01
  A 0.32 0.32 0.0 0 0 1086.88 39.89
  Q 1077.84 62.12 1068.95 84.23
  C 1067.57 87.68 1066.15 90.97 1062.41 92.23
  Q 1056.32 94.28 1051.18 92.55
  C 1046.80 91.08 1045.31 86.88 1043.61 82.66
  Q 1034.95 61.13 1026.23 39.65
  Z"
/>
<path fill="#dcddde" d="
  M 1125.09 32.92
  C 1130.39 21.83 1138.77 21.65 1149.84 21.29
  C 1172.52 20.55 1193.40 17.62 1194.25 48.19
  Q 1194.79 67.56 1193.76 80.99
  C 1192.61 96.03 1183.60 101.98 1169.50 102.14
  Q 1146.72 102.40 1140.77 101.73
  C 1127.83 100.28 1123.10 90.27 1122.42 78.57
  Q 1121.20 57.68 1122.70 41.26
  Q 1123.08 37.12 1125.09 32.92
  Z
  M 1145.76 87.58
  L 1170.38 87.58
  A 9.20 9.20 0.0 0 0 1179.58 78.38
  L 1179.58 45.57
  A 9.87 8.82 90.0 0 0 1170.76 35.70
  L 1145.38 35.70
  A 9.87 8.82 -90.0 0 0 1136.56 45.57
  L 1136.56 78.38
  A 9.20 9.20 0.0 0 0 1145.76 87.58
  Z"
/>
<path fill="#dcddde" d="
  M 1266.39 68.86
  L 1283.49 98.21
  A 2.52 2.52 0.0 0 1 1281.31 102.00
  L 1270.00 102.00
  A 2.55 2.55 0.0 0 1 1267.78 100.70
  L 1249.98 69.21
  Q 1249.73 68.75 1249.20 68.75
  L 1229.63 68.75
  Q 1229.00 68.75 1229.00 69.38
  L 1229.00 99.37
  A 2.63 2.63 0.0 0 1 1226.37 102.00
  L 1217.53 102.00
  A 3.03 3.03 0.0 0 1 1214.50 98.97
  L 1214.50 57.27
  A 3.03 3.02 -0.0 0 1 1217.53 54.25
  Q 1237.72 54.26 1258.62 54.24
  C 1261.91 54.23 1264.53 53.78 1265.85 50.73
  C 1267.89 46.00 1267.54 35.91 1260.19 35.86
  Q 1238.43 35.71 1217.22 35.75
  A 2.64 2.64 0.0 0 1 1214.57 33.14
  L 1214.47 24.69
  Q 1214.43 21.21 1217.91 21.22
  Q 1239.53 21.25 1261.25 21.43
  C 1266.32 21.47 1270.36 21.85 1274.49 25.01
  C 1282.12 30.84 1282.17 46.74 1280.09 54.90
  C 1278.18 62.39 1274.43 67.19 1266.68 68.26
  A 0.40 0.40 0.0 0 0 1266.39 68.86
  Z"
/>
<path fill="#dcddde" d="
  M 1503.26 52.77
  A 2.30 2.27 72.5 0 0 1505.17 53.78
  Q 1519.45 53.70 1534.24 53.67
  C 1551.64 53.64 1550.41 71.97 1550.33 83.75
  C 1550.27 92.83 1545.84 101.62 1535.68 101.75
  Q 1512.79 102.06 1490.49 102.01
  A 2.75 2.75 0.0 0 1 1487.75 99.26
  L 1487.75 90.12
  A 2.63 2.62 -0.0 0 1 1490.38 87.50
  L 1532.28 87.50
  A 3.35 3.35 0.0 0 0 1535.63 84.27
  Q 1535.86 78.07 1535.78 72.51
  Q 1535.72 68.27 1531.51 68.25
  Q 1519.56 68.21 1507.62 68.26
  C 1492.59 68.32 1489.21 64.93 1487.73 50.71
  C 1486.78 41.66 1486.85 26.85 1496.61 22.67
  Q 1499.85 21.27 1509.15 21.26
  Q 1527.32 21.23 1545.21 21.26
  A 3.04 3.04 0.0 0 1 1548.25 24.31
  L 1548.22 33.15
  A 2.62 2.61 0.1 0 1 1545.60 35.75
  Q 1526.71 35.74 1507.00 35.76
  Q 1502.25 35.77 1502.20 40.25
  C 1502.17 43.29 1501.59 50.29 1503.26 52.77
  Z"
/>
<path fill="#0078ed" d="
  M 325.64 56.89
  Q 328.31 54.06 332.32 54.05
  Q 357.16 53.95 381.73 54.02
  A 2.75 2.75 0.0 0 1 384.48 56.76
  L 384.50 65.84
  A 2.65 2.65 0.0 0 1 381.85 68.50
  L 338.79 68.50
  Q 338.41 68.50 338.32 68.87
  Q 336.76 76.03 338.99 80.49
  C 340.96 84.43 345.39 84.39 350.20 84.43
  Q 366.47 84.58 382.33 84.47
  A 2.65 2.64 89.8 0 1 384.99 87.12
  L 385.00 98.47
  Q 385.00 101.95 381.52 101.97
  Q 365.59 102.04 349.25 102.06
  Q 343.14 102.07 337.28 100.40
  C 322.99 96.32 322.74 77.09 323.51 65.22
  C 323.73 61.87 323.02 59.67 325.64 56.89
  Z"
/>
<path fill="#0078ed" d="
  M 530.63 68.88
  C 529.88 76.25 529.76 84.32 539.43 84.41
  Q 557.46 84.59 574.85 84.47
  A 2.63 2.62 89.8 0 1 577.49 87.10
  L 577.50 98.45
  Q 577.50 101.97 573.98 101.98
  Q 558.52 102.03 542.50 102.03
  C 515.71 102.02 516.04 85.71 516.00 64.56
  C 515.99 58.57 518.44 54.05 524.81 54.03
  Q 549.66 53.97 574.22 54.01
  A 2.76 2.76 0.0 0 1 576.98 56.76
  L 577.00 65.84
  A 2.65 2.65 0.0 0 1 574.35 68.50
  L 531.06 68.50
  Q 530.67 68.50 530.63 68.88
  Z"
/>
<path fill="#dcddde" d="
  M 1405.67 61.24
  C 1406.03 56.88 1410.20 54.07 1414.32 54.05
  Q 1439.30 53.96 1463.87 54.01
  A 2.64 2.63 0.1 0 1 1466.50 56.64
  L 1466.50 65.85
  A 2.66 2.65 -0.0 0 1 1463.84 68.50
  L 1420.72 68.50
  Q 1420.13 68.50 1420.09 69.08
  C 1419.48 76.46 1419.48 84.65 1429.44 84.63
  Q 1446.87 84.59 1463.86 84.43
  Q 1467.00 84.40 1467.00 87.54
  L 1467.00 98.71
  Q 1467.00 101.96 1463.75 101.98
  Q 1448.62 102.06 1433.25 101.97
  C 1426.91 101.93 1420.12 101.78 1414.99 98.44
  C 1404.08 91.33 1404.72 72.97 1405.67 61.24
  Z"
/>
<rect fill="#0078ed" x="88.49" y="109.34" width="155.56" height="45.66" rx="0.44"/>
<path fill="#dcddde" d="
  M 1261.10 219.23
  C 1255.87 223.23 1248.70 223.05 1242.56 221.92
  C 1236.05 220.72 1233.96 216.51 1233.21 210.07
  Q 1231.70 197.10 1233.72 186.50
  C 1235.81 175.56 1253.38 176.62 1261.01 180.07
  Q 1261.50 180.29 1261.50 179.75
  L 1261.50 163.75
  Q 1261.50 163.25 1262.00 163.25
  L 1266.25 163.25
  Q 1266.75 163.25 1266.75 163.75
  L 1266.75 221.25
  Q 1266.75 222.00 1266.00 222.00
  L 1262.04 222.00
  A 0.60 0.60 0.0 0 1 1261.45 221.29
  L 1261.73 219.62
  A 0.40 0.40 0.0 0 0 1261.10 219.23
  Z
  M 1254.83 182.92
  C 1248.79 181.90 1239.12 181.50 1238.38 189.88
  Q 1237.54 199.25 1238.25 208.60
  C 1238.61 213.39 1239.83 216.63 1244.75 217.51
  C 1254.22 219.19 1260.27 216.54 1261.21 206.32
  Q 1261.96 198.18 1261.34 189.99
  Q 1260.88 183.94 1254.83 182.92
  Z"
/>
<path fill="#dcddde" d="
  M 1530.00 219.50
  L 1530.00 221.25
  Q 1530.00 222.00 1529.25 222.00
  L 1525.38 222.00
  Q 1524.75 222.00 1524.75 221.38
  L 1524.75 163.88
  Q 1524.75 163.25 1525.38 163.25
  L 1529.39 163.25
  Q 1530.02 163.25 1530.02 163.89
  L 1529.96 179.77
  Q 1529.96 180.23 1530.38 180.05
  Q 1539.98 175.95 1550.26 178.80
  C 1555.77 180.34 1557.57 184.08 1558.22 189.74
  Q 1559.60 201.58 1557.99 212.75
  C 1556.28 224.64 1537.98 224.65 1530.53 219.23
  Q 1530.00 218.85 1530.00 219.50
  Z
  M 1531.70 185.69
  C 1528.72 190.24 1529.82 202.64 1530.42 207.54
  C 1531.10 213.20 1533.37 216.74 1539.07 217.59
  C 1546.79 218.74 1552.51 217.66 1553.22 208.80
  Q 1553.91 200.18 1553.23 191.57
  C 1552.87 186.89 1551.67 183.71 1546.84 182.88
  C 1542.88 182.20 1534.26 181.76 1531.70 185.69
  Z"
/>
<path fill="#dcddde" d="
  M 797.69 207.24
  C 797.18 219.74 790.74 221.67 779.83 221.92
  Q 769.01 222.18 757.88 221.93
  Q 757.25 221.91 757.25 221.28
  L 757.25 165.79
  A 0.54 0.54 0.0 0 1 757.78 165.25
  Q 771.61 165.16 785.07 165.67
  C 794.54 166.03 797.20 172.56 797.67 181.30
  Q 798.28 192.75 797.69 207.24
  Z
  M 762.54 170.76
  L 762.46 216.72
  A 0.68 0.68 0.0 0 0 763.14 217.40
  L 782.37 217.44
  A 10.47 10.35 -89.9 0 0 792.74 206.99
  L 792.78 180.61
  A 10.47 10.35 -89.9 0 0 782.45 170.12
  L 763.22 170.08
  A 0.68 0.68 0.0 0 0 762.54 170.76
  Z"
/>
<rect fill="#dcddde" x="1111.25" y="165.28" width="5.24" height="56.72" rx="0.62"/>
<path fill="#dcddde" d="
  M 1444.63 216.23
  A 0.19 0.19 0.0 0 0 1445.00 216.22
  L 1454.35 166.01
  Q 1454.49 165.25 1455.26 165.25
  L 1459.01 165.25
  A 0.63 0.62 5.3 0 1 1459.63 165.99
  L 1449.36 221.46
  A 0.66 0.66 0.0 0 1 1448.71 222.00
  L 1441.24 222.00
  Q 1440.70 222.00 1440.56 221.48
  L 1428.27 174.50
  A 0.25 0.25 0.0 0 0 1427.79 174.50
  L 1415.52 221.45
  A 0.75 0.73 -82.2 0 1 1414.81 222.00
  L 1407.27 222.00
  A 0.58 0.57 84.5 0 1 1406.71 221.53
  L 1396.42 165.97
  A 0.66 0.65 86.9 0 1 1397.11 165.20
  L 1400.94 165.47
  Q 1401.63 165.52 1401.75 166.19
  L 1411.10 216.42
  A 0.14 0.14 0.0 0 0 1411.37 216.43
  L 1423.95 167.95
  A 0.60 0.59 6.8 0 1 1424.53 167.50
  L 1431.53 167.50
  Q 1432.00 167.50 1432.12 167.96
  L 1444.63 216.23
  Z"
/>
<path fill="#dcddde" d="
  M 815.26 188.00
  C 817.07 176.90 832.76 176.30 840.50 179.00
  C 848.50 181.79 849.03 191.71 848.36 199.38
  Q 848.32 199.75 847.95 199.75
  L 820.47 199.75
  Q 819.90 199.75 819.84 200.32
  C 819.22 206.45 819.25 215.15 826.77 217.22
  Q 835.82 219.72 845.52 214.45
  A 0.58 0.58 0.0 0 1 846.31 214.68
  L 848.09 217.89
  Q 848.34 218.35 847.93 218.66
  C 842.01 223.03 831.07 223.28 824.75 221.72
  C 815.33 219.39 814.82 212.01 814.46 202.97
  Q 814.14 194.91 815.26 188.00
  Z
  M 820.50 194.86
  L 842.82 194.82
  A 0.66 0.66 0.0 0 0 843.48 194.16
  L 843.48 192.54
  A 10.08 9.33 89.9 0 0 834.13 182.48
  L 829.15 182.48
  A 10.08 9.33 89.9 0 0 819.84 192.58
  L 819.84 194.20
  A 0.66 0.66 0.0 0 0 820.50 194.86
  Z"
/>
<path fill="#dcddde" d="
  M 865.69 183.44
  C 870.61 176.01 884.37 177.15 891.43 179.69
  Q 891.99 179.89 891.79 180.44
  L 890.78 183.37
  A 0.64 0.64 0.0 0 1 890.05 183.79
  C 885.51 182.91 867.16 180.22 869.08 189.89
  C 870.67 197.87 889.15 196.55 893.37 205.80
  Q 895.23 209.88 893.73 214.27
  C 890.01 225.16 874.14 223.25 865.82 220.15
  Q 865.32 219.96 865.47 219.45
  L 866.48 216.00
  Q 866.66 215.38 867.27 215.58
  C 872.56 217.27 879.13 218.95 884.03 217.07
  C 888.60 215.33 890.57 211.43 888.20 206.80
  C 886.66 203.77 877.09 201.29 873.59 200.08
  C 866.15 197.52 860.43 191.38 865.69 183.44
  Z"
/>
<path fill="#dcddde" d="
  M 909.73 188.24
  C 911.45 177.24 926.03 176.39 933.67 178.61
  C 943.15 181.35 943.51 191.07 942.91 199.34
  Q 942.88 199.75 942.47 199.75
  L 915.01 199.75
  Q 914.48 199.75 914.43 200.27
  Q 913.64 207.31 915.23 212.00
  C 918.31 221.09 934.11 217.74 940.07 214.49
  A 0.58 0.56 -28.6 0 1 940.85 214.71
  L 942.59 217.87
  Q 942.87 218.37 942.40 218.68
  C 936.14 222.92 927.03 223.23 919.74 221.75
  C 912.86 220.36 910.24 216.19 909.43 209.23
  Q 908.16 198.27 909.73 188.24
  Z
  M 914.60 194.81
  L 937.70 194.73
  A 0.20 0.20 0.0 0 0 937.90 194.53
  L 937.89 192.50
  A 10.01 9.10 89.8 0 0 928.76 182.52
  L 923.46 182.54
  A 10.01 9.10 89.8 0 0 914.39 192.58
  L 914.40 194.61
  A 0.20 0.20 0.0 0 0 914.60 194.81
  Z"
/>
<path fill="#dcddde" d="
  M 966.25 182.73
  C 975.85 174.52 993.25 175.57 993.68 191.46
  Q 994.10 206.45 994.00 221.48
  Q 994.00 222.00 993.48 222.00
  L 989.44 222.00
  Q 988.73 222.00 988.74 221.29
  Q 988.79 208.00 988.72 194.77
  Q 988.68 188.86 987.49 186.56
  C 983.36 178.62 971.12 183.71 966.33 188.69
  Q 966.00 189.03 966.00 189.51
  L 966.00 221.25
  Q 966.00 222.00 965.25 222.00
  L 961.25 222.00
  Q 960.75 222.00 960.75 221.50
  L 960.75 178.75
  Q 960.75 178.25 961.25 178.25
  L 965.25 178.25
  Q 965.75 178.25 965.75 178.75
  L 965.75 182.50
  Q 965.75 183.15 966.25 182.73
  Z"
/>
<path fill="#dcddde" d="
  M 1060.01 187.00
  C 1061.58 176.42 1076.22 177.05 1083.58 178.46
  C 1090.31 179.75 1092.10 184.12 1092.67 190.73
  C 1093.28 197.79 1094.75 214.88 1088.42 219.73
  C 1083.74 223.31 1073.82 223.00 1068.22 221.74
  C 1061.87 220.31 1060.18 215.62 1059.58 209.34
  Q 1058.45 197.50 1060.01 187.00
  Z
  M 1087.69 190.90
  A 8.33 8.33 0.0 0 0 1079.36 182.57
  L 1072.92 182.57
  A 8.33 8.33 0.0 0 0 1064.59 190.90
  L 1064.59 209.54
  A 8.33 8.33 0.0 0 0 1072.92 217.87
  L 1079.36 217.87
  A 8.33 8.33 0.0 0 0 1087.69 209.54
  L 1087.69 190.90
  Z"
/>
<path fill="#dcddde" d="
  M 1183.47 188.49
  C 1185.12 177.13 1199.20 176.58 1207.41 178.62
  C 1216.59 180.90 1217.41 191.01 1216.57 199.41
  Q 1216.53 199.75 1216.19 199.75
  L 1188.75 199.75
  Q 1188.21 199.75 1188.15 200.29
  C 1187.44 207.27 1187.62 216.01 1196.02 217.41
  Q 1205.47 218.99 1213.88 214.49
  A 0.50 0.50 0.0 0 1 1214.56 214.69
  L 1216.34 217.93
  Q 1216.59 218.40 1216.15 218.71
  C 1208.92 223.64 1190.90 224.85 1185.43 216.79
  C 1181.34 210.77 1182.48 195.35 1183.47 188.49
  Z
  M 1188.52 194.82
  L 1211.26 194.70
  A 0.30 0.30 0.0 0 0 1211.56 194.40
  L 1211.55 192.15
  A 9.69 9.18 89.7 0 0 1202.32 182.51
  L 1197.34 182.53
  A 9.69 9.18 89.7 0 0 1188.21 192.27
  L 1188.22 194.52
  A 0.30 0.30 0.0 0 0 1188.52 194.82
  Z"
/>
<path fill="#dcddde" d="
  M 1285.39 188.07
  C 1286.76 176.38 1300.70 176.93 1308.93 178.39
  C 1315.79 179.62 1317.53 184.12 1318.19 190.78
  Q 1319.40 203.21 1317.73 213.49
  C 1316.03 223.91 1301.05 223.40 1293.72 221.75
  C 1287.38 220.32 1285.66 215.62 1285.10 209.34
  Q 1284.15 198.71 1285.39 188.07
  Z
  M 1313.2162 190.9202
  A 8.33 8.33 0.0 0 0 1304.9008 182.5757
  L 1298.4408 182.5644
  A 8.33 8.33 0.0 0 0 1290.0963 190.8798
  L 1290.0638 209.5198
  A 8.33 8.33 0.0 0 0 1298.3792 217.8643
  L 1304.8392 217.8756
  A 8.33 8.33 0.0 0 0 1313.1837 209.5602
  L 1313.2162 190.9202
  Z"
/>
<path fill="#dcddde" d="
  M 1342.34 182.97
  Q 1348.79 177.86 1357.12 177.82
  Q 1357.79 177.82 1357.77 178.48
  L 1357.70 181.99
  Q 1357.69 182.52 1357.16 182.58
  Q 1349.12 183.52 1342.41 188.00
  Q 1342.00 188.28 1342.00 188.78
  L 1342.00 221.25
  Q 1342.00 222.00 1341.25 222.00
  L 1337.25 222.00
  Q 1336.75 222.00 1336.75 221.50
  L 1336.75 178.75
  Q 1336.75 178.25 1337.25 178.25
  L 1341.31 178.25
  A 0.75 0.75 0.0 0 1 1342.06 179.06
  L 1341.81 182.68
  Q 1341.75 183.43 1342.34 182.97
  Z"
/>
<path fill="#dcddde" d="
  M 1473.05 196.07
  C 1473.37 188.72 1474.03 180.63 1482.83 178.62
  Q 1491.13 176.71 1497.67 178.61
  C 1507.15 181.35 1507.51 191.07 1506.91 199.34
  Q 1506.88 199.75 1506.47 199.75
  L 1479.00 199.75
  Q 1478.45 199.75 1478.40 200.30
  Q 1477.74 206.96 1479.03 211.48
  C 1481.82 221.19 1497.96 217.82 1504.08 214.49
  A 0.57 0.57 0.0 0 1 1504.85 214.72
  L 1506.59 217.87
  Q 1506.87 218.37 1506.40 218.68
  C 1500.15 222.90 1490.76 223.28 1483.73 221.77
  C 1471.44 219.14 1472.64 205.64 1473.05 196.07
  Z
  M 1478.60 194.81
  L 1501.70 194.73
  A 0.20 0.20 0.0 0 0 1501.90 194.53
  L 1501.89 192.50
  A 10.01 9.10 89.8 0 0 1492.76 182.52
  L 1487.46 182.54
  A 10.01 9.10 89.8 0 0 1478.39 192.58
  L 1478.40 194.61
  A 0.20 0.20 0.0 0 0 1478.60 194.81
  Z"
/>
<path fill="#dcddde" d="
  M 1042.16 178.25
  L 1046.88 178.25
  A 0.33 0.33 0.0 0 1 1047.19 178.69
  L 1031.68 221.78
  A 0.33 0.33 0.0 0 1 1031.37 222.00
  L 1023.69 222.00
  A 0.33 0.33 0.0 0 1 1023.38 221.78
  L 1007.86 178.69
  A 0.33 0.33 0.0 0 1 1008.17 178.25
  L 1012.89 178.25
  A 0.33 0.33 0.0 0 1 1013.20 178.47
  L 1027.21 217.05
  A 0.33 0.33 0.0 0 0 1027.83 217.05
  L 1041.85 178.47
  A 0.33 0.33 0.0 0 1 1042.16 178.25
  Z"
/>
<path fill="#dcddde" d="
  M 1151.07 217.07
  L 1165.12 178.46
  A 0.32 0.32 0.0 0 1 1165.42 178.25
  L 1170.14 178.25
  A 0.32 0.32 0.0 0 1 1170.45 178.68
  L 1154.93 221.79
  A 0.32 0.32 0.0 0 1 1154.63 222.00
  L 1146.95 222.00
  A 0.32 0.32 0.0 0 1 1146.65 221.79
  L 1131.11 178.68
  A 0.32 0.32 0.0 0 1 1131.42 178.25
  L 1136.15 178.25
  A 0.32 0.32 0.0 0 1 1136.45 178.46
  L 1150.47 217.07
  A 0.32 0.32 0.0 0 0 1151.07 217.07
  Z"
/>
</svg>
