<?xml version="1.0" encoding="UTF-8" standalone="no"?>
<!DOCTYPE svg PUBLIC "-//W3C//DTD SVG 1.1//EN" "http://www.w3.org/Graphics/SVG/1.1/DTD/svg11.dtd">
<svg xmlns="http://www.w3.org/2000/svg" version="1.1" viewBox="0.00 0.00 1537.00 521.00">
<path fill="#dcddde" d="
  M 412.53 437.95
  L 487.82 512.88
  Q 488.71 513.76 487.46 513.76
  Q 374.40 513.75 262.26 513.75
  Q 248.89 513.75 242.26 513.39
  C 132.30 507.38 39.28 429.72 12.58 323.18
  C -27.01 165.25 93.82 11.62 256.32 11.53
  Q 362.66 11.47 469.36 11.51
  A 0.34 0.33 22.4 0 1 469.60 12.08
  L 394.53 86.78
  A 3.41 3.38 22.5 0 1 392.14 87.76
  Q 336.82 87.71 281.01 87.78
  Q 267.85 87.80 261.03 88.40
  C 172.14 96.26 103.71 170.86 101.96 259.50
  C 100.02 357.98 179.88 437.92 278.06 437.84
  Q 327.88 437.80 377.69 437.61
  C 385.37 437.58 400.02 437.94 411.36 437.49
  A 1.61 1.60 66.1 0 1 412.53 437.95
  Z"
/>
<rect fill="#0078ed" x="539.55" y="20.75" width="99.42" height="23.50" rx="4.85"/>
<rect fill="#0078ed" x="849.80" y="20.75" width="99.42" height="23.50" rx="4.87"/>
<path fill="#0078ed" d="
  M 793.42 50.81
  Q 778.94 86.14 764.64 121.78
  C 759.36 134.93 755.78 136.42 741.95 136.56
  C 731.43 136.66 728.09 130.81 724.28 121.33
  Q 710.43 86.87 695.85 50.98
  A 0.57 0.57 0.0 0 0 694.75 51.19
  Q 694.75 97.85 694.73 144.99
  C 694.73 150.32 692.38 151.24 687.45 151.25
  C 683.97 151.25 677.13 151.90 674.52 150.52
  C 672.05 149.20 672.09 146.59 672.08 143.80
  C 671.91 111.63 672.34 79.43 671.94 47.27
  Q 671.81 36.55 673.18 29.75
  C 674.40 23.71 679.15 21.66 685.14 21.23
  C 693.57 20.62 709.08 18.76 712.94 28.56
  Q 728.05 66.88 743.53 105.56
  A 1.06 1.05 2.4 0 0 744.05 106.12
  Q 744.95 106.54 745.60 106.03
  Q 745.95 105.76 746.28 104.95
  Q 761.64 66.88 776.71 28.70
  C 780.83 18.27 797.35 20.67 806.31 21.51
  C 815.80 22.39 816.75 31.30 816.78 39.06
  Q 817.06 117.19 816.99 145.75
  C 816.96 153.67 804.68 151.27 799.49 151.23
  C 795.51 151.20 794.51 148.72 794.51 145.06
  Q 794.49 98.15 794.56 51.25
  Q 794.56 50.80 794.17 50.56
  Q 793.65 50.25 793.42 50.81
  Z"
/>
<path fill="#0078ed" d="
  M 1005.77 98.00
  Q 1005.72 122.10 1005.73 146.18
  C 1005.74 153.42 992.82 151.29 987.99 151.30
  C 982.72 151.31 982.29 147.85 982.28 143.33
  Q 982.19 113.41 982.29 83.49
  C 982.31 77.23 981.94 74.00 989.04 74.00
  Q 1022.78 74.00 1056.50 74.00
  C 1062.57 74.00 1065.07 69.87 1065.96 64.24
  C 1066.84 58.66 1066.85 48.09 1060.62 45.37
  Q 1058.68 44.53 1053.65 44.52
  Q 1021.40 44.48 989.16 44.51
  C 984.59 44.51 982.43 43.63 982.37 38.74
  C 982.31 33.24 980.12 21.11 987.31 21.06
  Q 1032.72 20.72 1062.74 21.34
  C 1091.23 21.93 1092.32 56.43 1087.57 76.55
  Q 1083.51 93.80 1066.00 96.78
  Q 1065.28 96.90 1065.64 97.53
  Q 1078.77 119.99 1092.01 142.74
  C 1093.91 146.00 1094.69 151.14 1089.18 151.21
  Q 1084.39 151.27 1073.00 151.21
  C 1069.99 151.19 1068.65 150.03 1067.15 147.37
  Q 1053.17 122.65 1039.22 97.93
  Q 1038.98 97.50 1038.49 97.50
  L 1006.27 97.50
  Q 1005.77 97.50 1005.77 98.00
  Z"
/>
<path fill="#0078ed" d="
  M 1127.32 46.76
  C 1127.92 36.60 1133.23 25.30 1143.55 22.23
  Q 1146.42 21.38 1153.69 21.26
  Q 1184.41 20.78 1215.15 21.08
  C 1222.47 21.15 1224.57 20.94 1224.51 29.21
  Q 1224.47 34.15 1224.42 38.99
  C 1224.35 44.81 1220.64 44.50 1215.81 44.50
  Q 1186.37 44.50 1156.94 44.50
  C 1152.84 44.50 1151.22 45.73 1150.77 49.76
  Q 1149.74 58.89 1150.60 68.05
  C 1151.06 72.98 1154.18 73.48 1158.63 73.49
  Q 1177.28 73.50 1195.92 73.51
  Q 1207.93 73.51 1211.91 74.88
  C 1230.21 81.18 1227.84 106.22 1227.76 121.49
  C 1227.70 132.55 1223.52 145.12 1212.51 149.35
  Q 1208.35 150.95 1197.16 150.97
  Q 1164.83 151.04 1132.50 150.98
  C 1127.72 150.97 1127.07 148.73 1127.02 144.38
  Q 1126.94 138.12 1127.03 131.93
  A 4.25 4.24 0.3 0 1 1131.28 127.74
  Q 1162.93 127.78 1195.35 127.72
  C 1202.39 127.70 1204.08 126.80 1204.37 119.40
  Q 1204.66 112.10 1204.34 102.96
  C 1204.14 97.55 1201.19 96.72 1196.28 96.73
  Q 1175.95 96.81 1155.65 96.71
  C 1143.82 96.65 1135.09 96.11 1130.05 83.59
  C 1125.76 72.94 1126.64 58.04 1127.32 46.76
  Z"
/>
<path fill="#0078ed" d="
  M 1300.44 151.06
  C 1283.60 150.98 1269.51 146.48 1264.27 128.73
  Q 1260.97 117.56 1260.93 106.49
  Q 1260.85 85.63 1261.14 64.75
  C 1261.51 38.80 1269.94 22.01 1298.42 21.23
  Q 1321.08 20.61 1343.74 21.40
  C 1369.74 22.30 1376.37 43.22 1376.84 65.19
  Q 1377.31 87.59 1376.67 109.99
  C 1375.95 135.20 1366.34 150.61 1339.77 151.02
  Q 1328.40 151.20 1300.44 151.06
  Z
  M 1288.19 48.69
  Q 1284.15 53.96 1284.14 62.45
  Q 1284.11 85.82 1284.46 109.18
  C 1284.68 123.63 1288.90 127.72 1303.50 127.76
  Q 1320.22 127.80 1336.94 127.54
  Q 1342.09 127.46 1343.76 127.00
  C 1353.00 124.41 1353.46 114.58 1353.48 106.50
  Q 1353.55 84.53 1353.36 62.57
  C 1353.25 50.60 1349.65 44.50 1336.75 44.46
  Q 1317.45 44.40 1298.20 44.43
  Q 1291.43 44.44 1288.19 48.69
  Z"
/>
<path fill="#0078ed" d="
  M 1502.20 121.49
  A 0.56 0.56 0.0 0 0 1503.25 121.21
  Q 1503.24 73.50 1503.27 25.57
  Q 1503.27 23.52 1504.73 22.25
  C 1507.34 19.97 1519.93 21.02 1523.52 21.39
  A 1.38 1.37 73.5 0 1 1524.45 21.90
  Q 1526.22 24.10 1526.18 27.81
  Q 1525.79 59.13 1526.04 134.75
  C 1526.10 153.52 1510.44 152.34 1497.29 150.91
  C 1491.05 150.23 1488.20 146.36 1484.97 140.66
  Q 1459.45 95.63 1434.25 50.82
  A 0.62 0.62 0.0 0 0 1433.09 51.12
  Q 1432.93 88.81 1433.00 126.61
  C 1433.01 130.70 1433.44 138.49 1433.02 144.47
  C 1432.66 149.72 1432.38 151.13 1426.58 151.23
  Q 1417.84 151.39 1414.57 151.18
  C 1410.04 150.89 1410.26 147.09 1410.24 143.75
  Q 1409.86 77.36 1410.35 36.31
  C 1410.46 26.81 1414.51 21.84 1424.12 21.17
  Q 1434.09 20.47 1440.22 21.32
  Q 1446.14 22.14 1449.57 28.19
  Q 1476.02 74.89 1502.20 121.49
  Z"
/>
<path fill="#0078ed" d="
  M 563.26 97.75
  C 562.17 108.53 561.95 122.54 577.07 122.63
  Q 606.00 122.79 634.94 122.75
  C 640.99 122.75 638.98 140.39 638.88 145.69
  C 638.82 149.18 637.28 150.73 633.71 150.73
  Q 604.97 150.77 576.25 150.77
  C 538.21 150.77 538.99 115.81 539.87 87.89
  C 540.17 78.16 546.11 74.10 555.32 74.00
  Q 610.39 73.37 634.43 73.81
  C 640.11 73.91 638.24 90.49 637.82 93.94
  A 1.79 1.68 68.7 0 1 637.49 94.76
  Q 635.82 97.00 634.50 97.00
  Q 599.78 96.99 564.08 97.01
  Q 563.33 97.01 563.26 97.75
  Z"
/>
<path fill="#0078ed" d="
  M 873.53 97.75
  C 872.40 108.60 872.20 122.49 887.32 122.60
  Q 915.53 122.81 943.75 122.75
  Q 948.88 122.74 949.08 127.82
  Q 949.32 134.25 949.16 145.68
  C 949.11 149.30 947.33 150.75 943.72 150.75
  Q 914.48 150.75 885.25 150.75
  C 848.47 150.74 849.32 114.40 850.09 88.46
  C 850.41 77.96 856.18 74.08 866.11 73.98
  Q 921.93 73.40 944.50 73.80
  C 950.44 73.90 948.50 90.31 948.06 93.94
  A 1.73 1.69 -24.3 0 1 947.74 94.76
  Q 946.08 97.00 944.75 97.00
  Q 909.88 97.00 874.36 97.00
  A 0.83 0.83 0.0 0 0 873.53 97.75
  Z"
/>
<path fill="#dcddde" d="
  M 1076.31 237.07
  A 0.51 0.51 0.0 0 0 1075.36 237.08
  L 1055.39 287.68
  Q 1055.18 288.22 1055.76 288.23
  Q 1065.31 288.29 1074.68 288.27
  C 1076.81 288.26 1078.46 289.95 1079.35 291.96
  C 1082.18 298.37 1090.40 312.21 1078.92 312.23
  Q 1062.70 312.27 1046.42 312.24
  Q 1045.68 312.24 1045.41 312.93
  Q 1041.06 323.92 1036.48 335.24
  C 1034.69 339.66 1022.63 338.41 1015.37 338.15
  C 1012.12 338.03 1010.27 335.82 1011.48 332.74
  Q 1021.97 306.09 1053.41 228.59
  C 1057.28 219.03 1058.70 213.63 1065.72 209.30
  C 1073.56 204.45 1083.80 205.93 1089.98 212.57
  Q 1092.66 215.45 1095.51 222.48
  Q 1117.79 277.35 1140.01 332.24
  C 1141.94 337.00 1138.66 338.22 1134.70 338.24
  Q 1127.84 338.27 1120.99 338.24
  C 1116.38 338.22 1115.80 335.59 1114.11 331.38
  Q 1095.21 284.09 1076.31 237.07
  Z"
/>
<rect fill="#dcddde" x="1173.80" y="207.75" width="99.42" height="23.50" rx="4.82"/>
<path fill="#dcddde" d="
  M 663.41 207.97
  C 679.75 207.57 684.47 210.60 684.48 227.60
  Q 684.52 280.42 684.49 333.25
  C 684.49 340.45 671.39 338.29 666.63 338.23
  A 4.68 4.68 0.0 0 1 662.00 333.55
  L 661.99 238.24
  A 0.60 0.60 0.0 0 0 660.84 238.01
  Q 645.79 274.89 630.77 312.25
  C 628.26 318.49 624.36 322.49 617.42 323.30
  C 604.97 324.74 597.59 323.04 592.66 310.70
  Q 578.55 275.34 563.41 238.10
  Q 562.93 236.91 562.35 238.06
  Q 561.98 238.80 562.09 239.88
  Q 562.24 241.38 562.24 241.64
  Q 562.27 287.19 562.23 332.75
  C 562.22 340.66 550.16 338.26 545.00 338.22
  C 540.05 338.19 539.56 335.01 539.55 330.72
  Q 539.37 278.08 539.64 225.45
  C 539.69 214.39 542.36 208.70 554.23 208.12
  Q 565.41 207.57 570.97 208.31
  C 578.24 209.28 579.98 214.43 582.40 220.53
  Q 596.72 256.68 611.01 292.51
  A 1.36 1.36 0.0 0 0 613.53 292.52
  Q 628.68 255.05 643.49 217.45
  C 647.43 207.44 653.11 208.22 663.41 207.97
  Z"
/>
<path fill="#dcddde" d="
  M 784.07 208.06
  C 800.45 208.27 821.05 207.35 828.77 225.79
  Q 833.74 237.66 833.80 253.51
  Q 833.88 273.37 833.75 293.25
  C 833.56 319.99 824.55 338.13 795.32 338.29
  Q 777.03 338.39 758.75 338.18
  C 743.35 338.01 729.04 335.40 722.56 319.93
  Q 718.18 309.48 717.77 297.07
  Q 717.18 278.89 717.56 260.72
  C 718.08 235.20 720.41 208.95 753.00 208.21
  Q 768.53 207.85 784.07 208.06
  Z
  M 741.25 296.18
  C 741.39 308.26 743.92 314.03 756.96 314.40
  Q 779.61 315.05 797.68 314.42
  C 809.00 314.03 810.27 302.61 810.29 294.00
  Q 810.32 271.78 810.17 249.56
  C 810.10 238.83 806.79 231.70 794.74 231.58
  Q 769.86 231.32 755.29 231.58
  C 743.02 231.81 741.09 241.37 741.02 251.25
  Q 740.91 266.25 741.25 296.18
  Z"
/>
<path fill="#dcddde" d="
  M 890.27 285.00
  Q 890.21 308.88 890.23 332.74
  C 890.23 337.34 887.54 338.21 883.41 338.25
  C 878.16 338.30 867.00 340.66 866.95 332.69
  Q 866.65 284.30 866.79 266.32
  Q 866.83 261.09 872.25 261.08
  Q 907.22 261.01 942.19 260.98
  C 951.52 260.97 951.25 246.42 950.23 240.27
  C 948.96 232.62 944.97 231.51 937.61 231.51
  Q 904.43 231.49 871.25 231.50
  C 868.86 231.50 867.23 229.57 867.01 227.15
  Q 866.01 216.47 867.05 211.54
  C 867.83 207.87 871.37 208.00 874.99 208.00
  Q 910.26 207.97 945.52 208.51
  Q 968.37 208.86 972.73 231.78
  C 976.50 251.63 975.24 279.72 950.29 283.82
  A 0.35 0.34 70.1 0 0 950.05 284.34
  Q 963.56 307.44 976.48 329.68
  C 979.21 334.38 978.54 338.24 972.41 338.25
  Q 964.94 338.27 957.50 338.26
  C 954.58 338.26 953.09 336.95 951.63 334.37
  Q 937.65 309.65 923.72 284.92
  Q 923.48 284.50 922.99 284.50
  L 890.77 284.50
  Q 890.27 284.50 890.27 285.00
  Z"
/>
<path fill="#dcddde" d="
  M 1314.94 278.81
  Q 1308.76 273.22 1307.39 263.24
  C 1305.28 247.83 1302.97 216.22 1322.14 209.52
  Q 1325.56 208.32 1333.64 208.22
  Q 1365.69 207.79 1397.75 208.06
  Q 1404.09 208.12 1404.14 214.01
  Q 1404.19 221.01 1403.81 227.44
  A 4.30 4.29 1.6 0 1 1399.52 231.49
  Q 1367.72 231.52 1335.25 231.48
  C 1327.65 231.47 1329.99 248.90 1330.05 253.98
  Q 1330.12 260.43 1336.49 260.43
  Q 1358.16 260.46 1379.82 260.53
  C 1403.34 260.61 1406.82 275.86 1407.47 295.59
  C 1407.93 309.51 1407.87 330.24 1392.04 336.36
  Q 1387.94 337.95 1376.65 337.97
  Q 1343.95 338.03 1311.25 337.92
  C 1307.30 337.91 1306.57 335.42 1306.53 331.88
  Q 1306.45 325.65 1306.52 319.06
  A 4.41 4.40 0.4 0 1 1310.94 314.71
  Q 1344.11 314.86 1377.95 314.64
  C 1382.36 314.61 1383.69 311.78 1383.85 307.80
  Q 1384.11 301.47 1383.88 290.28
  C 1383.77 284.72 1380.76 283.72 1375.69 283.74
  Q 1356.15 283.80 1336.63 283.71
  C 1327.22 283.67 1320.73 284.05 1314.94 278.81
  Z"
/>
<rect fill="#0078ed" x="177.72" y="216.24" width="312.78" height="91.26" rx="0.30"/>
<path fill="#dcddde" d="
  M 1197.62 284.83
  C 1196.48 292.89 1196.06 305.96 1206.24 308.99
  Q 1208.35 309.62 1214.50 309.64
  Q 1241.00 309.74 1267.50 309.76
  Q 1272.74 309.76 1272.96 314.56
  Q 1273.37 323.76 1273.23 332.93
  C 1273.17 336.66 1270.98 337.75 1267.47 337.75
  Q 1237.86 337.75 1208.25 337.75
  Q 1206.21 337.75 1200.49 336.59
  C 1172.65 330.97 1174.11 302.05 1173.99 280.48
  Q 1173.94 271.85 1175.31 268.71
  C 1178.04 262.51 1183.35 261.05 1190.15 260.98
  Q 1228.23 260.60 1266.30 260.77
  Q 1269.27 260.79 1270.51 261.65
  C 1273.59 263.81 1272.49 273.99 1272.39 278.92
  C 1272.31 282.74 1270.41 284.01 1266.68 284.00
  Q 1232.88 283.99 1198.56 284.01
  Q 1197.74 284.01 1197.62 284.83
  Z"
/>
<path fill="#dcddde" d="
  M 1081.02 472.79
  Q 1077.29 475.90 1072.44 476.36
  C 1061.93 477.34 1051.98 476.34 1050.70 463.49
  Q 1049.52 451.60 1050.67 440.42
  C 1052.22 425.44 1071.04 425.79 1081.02 430.53
  Q 1081.50 430.76 1081.50 430.23
  L 1081.50 412.63
  Q 1081.50 412.00 1082.13 412.00
  L 1086.37 412.00
  Q 1086.99 412.00 1086.99 412.62
  L 1087.01 475.46
  Q 1087.01 476.00 1086.47 476.00
  L 1082.25 476.00
  Q 1081.50 476.00 1081.50 475.25
  L 1081.50 473.01
  Q 1081.50 472.38 1081.02 472.79
  Z
  M 1056.30 463.74
  C 1057.04 471.14 1064.67 472.31 1070.84 471.34
  C 1077.66 470.27 1080.02 466.88 1080.93 460.05
  Q 1082.18 450.68 1081.10 441.24
  C 1080.12 432.75 1072.71 432.60 1066.01 433.13
  C 1059.93 433.61 1056.60 435.55 1056.21 441.95
  Q 1055.42 454.99 1056.30 463.74
  Z"
/>
<path fill="#dcddde" d="
  M 1373.48 473.02
  L 1373.44 475.29
  A 0.73 0.73 0.0 0 1 1372.71 476.00
  L 1368.50 476.00
  Q 1367.75 476.00 1367.75 475.25
  L 1367.75 412.50
  Q 1367.75 412.00 1368.25 412.00
  L 1372.77 412.00
  A 0.77 0.77 0.0 0 1 1373.54 412.77
  L 1373.41 430.29
  Q 1373.41 430.85 1373.91 430.60
  Q 1378.07 428.50 1379.55 428.32
  C 1391.21 426.88 1402.68 427.13 1404.21 441.33
  Q 1405.68 454.86 1403.80 466.51
  C 1401.86 478.53 1381.25 479.14 1373.93 472.83
  Q 1373.49 472.45 1373.48 473.02
  Z
  M 1381.97 470.83
  C 1387.52 472.59 1397.66 471.90 1398.51 464.24
  Q 1399.60 454.41 1398.76 443.08
  C 1398.42 438.61 1397.45 434.98 1393.00 433.76
  C 1386.40 431.96 1373.89 431.67 1373.62 442.01
  C 1373.36 451.65 1370.68 467.26 1381.97 470.83
  Z"
/>
<rect fill="#dcddde" x="918.25" y="414.47" width="5.50" height="61.52" rx="0.29"/>
<path fill="#dcddde" d="
  M 1280.60 469.46
  Q 1280.91 470.67 1281.14 469.45
  L 1291.25 414.98
  Q 1291.33 414.54 1291.78 414.53
  L 1296.54 414.43
  Q 1297.11 414.42 1297.01 414.98
  L 1285.79 475.53
  Q 1285.70 476.00 1285.22 476.00
  L 1276.95 476.00
  Q 1276.38 476.00 1276.24 475.45
  L 1262.85 424.26
  A 0.23 0.23 0.0 0 0 1262.40 424.26
  L 1249.04 475.45
  A 0.75 0.75 0.0 0 1 1248.32 476.00
  L 1240.20 476.00
  Q 1239.56 476.00 1239.44 475.37
  L 1228.28 415.16
  Q 1228.16 414.50 1228.83 414.50
  L 1233.33 414.50
  Q 1233.92 414.50 1234.02 415.08
  L 1244.11 469.36
  A 0.29 0.29 0.0 0 0 1244.68 469.38
  L 1258.15 417.42
  A 0.89 0.89 0.0 0 1 1259.01 416.75
  L 1266.24 416.75
  Q 1266.94 416.75 1267.11 417.42
  L 1280.60 469.46
  Z"
/>
<path fill="#dcddde" d="
  M 562.42 414.63
  C 573.59 414.82 577.29 421.98 577.53 432.07
  Q 577.80 443.78 577.79 455.50
  C 577.77 467.26 575.35 475.40 561.68 475.73
  Q 547.85 476.07 534.01 476.01
  Q 533.50 476.01 533.50 475.50
  L 533.50 415.02
  Q 533.50 414.53 533.98 414.53
  Q 548.25 414.40 562.42 414.63
  Z
  M 539.13 419.87
  L 538.95 470.63
  A 0.33 0.33 0.0 0 0 539.28 470.96
  L 561.15 471.04
  A 10.96 10.78 -89.8 0 0 571.97 460.12
  L 572.07 430.62
  A 10.96 10.78 -89.8 0 0 561.33 419.62
  L 539.46 419.54
  A 0.33 0.33 0.0 0 0 539.13 419.87
  Z"
/>
<path fill="#dcddde" d="
  M 601.36 452.41
  C 600.90 458.78 600.64 468.48 608.22 470.50
  Q 619.23 473.42 629.40 467.78
  Q 629.94 467.48 630.23 468.03
  L 632.12 471.64
  A 0.58 0.57 -30.5 0 1 631.92 472.39
  C 621.36 479.38 596.68 479.74 595.94 462.05
  C 595.60 453.93 594.21 440.30 598.79 433.56
  C 603.43 426.73 617.71 427.17 623.95 429.31
  C 632.54 432.25 632.99 443.63 632.61 451.22
  A 0.82 0.82 0.0 0 1 631.79 452.00
  L 601.80 452.00
  Q 601.39 452.00 601.36 452.41
  Z
  M 601.93 446.57
  L 626.47 446.45
  A 0.58 0.58 0.0 0 0 627.04 445.86
  L 627.03 443.93
  A 10.99 10.25 89.7 0 0 616.72 433.00
  L 611.52 433.02
  A 10.99 10.25 89.7 0 0 601.33 444.07
  L 601.34 446.00
  A 0.58 0.58 0.0 0 0 601.93 446.57
  Z"
/>
<path fill="#dcddde" d="
  M 660.25 452.26
  C 653.36 449.93 647.19 445.01 649.81 437.22
  C 653.67 425.72 670.87 427.05 679.44 429.95
  Q 680.03 430.16 679.81 430.74
  L 678.60 434.07
  A 0.72 0.71 -73.5 0 1 677.78 434.52
  C 671.87 433.18 665.48 432.14 659.90 434.32
  C 655.41 436.08 653.44 439.74 656.41 444.07
  C 658.30 446.84 669.67 449.93 673.47 451.53
  C 679.66 454.14 683.50 458.27 682.32 465.39
  C 679.99 479.48 661.52 477.58 651.45 474.02
  Q 650.97 473.85 651.12 473.36
  L 652.35 469.31
  A 0.50 0.50 0.0 0 1 652.97 468.98
  C 659.23 470.95 671.84 474.46 676.11 466.92
  C 681.51 457.38 665.79 454.13 660.25 452.26
  Z"
/>
<path fill="#dcddde" d="
  M 704.12 452.40
  C 703.62 458.74 703.39 468.50 710.97 470.50
  Q 721.98 473.40 732.17 467.78
  Q 732.70 467.49 732.98 468.03
  L 734.85 471.60
  Q 735.07 472.02 734.69 472.31
  C 728.61 477.01 718.14 477.18 710.76 475.81
  C 699.09 473.63 698.67 465.71 698.25 454.91
  Q 697.88 445.63 699.26 438.75
  C 701.61 426.94 717.87 426.37 726.50 429.23
  C 735.39 432.18 735.69 443.55 735.30 451.28
  A 0.76 0.76 0.0 0 1 734.54 452.00
  L 704.55 452.00
  Q 704.15 452.00 704.12 452.40
  Z
  M 704.89 446.53
  L 729.07 446.49
  A 0.67 0.67 0.0 0 0 729.74 445.82
  L 729.74 443.91
  A 10.86 9.99 89.9 0 0 719.73 433.07
  L 714.19 433.07
  A 10.86 9.99 89.9 0 0 704.22 443.95
  L 704.22 445.86
  A 0.67 0.67 0.0 0 0 704.89 446.53
  Z"
/>
<path fill="#dcddde" d="
  M 760.12 433.29
  A 0.31 0.30 68.7 0 0 760.64 433.52
  C 768.36 425.77 784.39 425.29 789.16 435.97
  Q 790.77 439.59 790.90 447.74
  Q 791.11 461.55 790.96 475.34
  Q 790.95 476.00 790.29 476.00
  L 785.95 476.00
  Q 785.27 476.00 785.27 475.32
  Q 785.21 462.12 785.27 448.96
  Q 785.30 440.73 783.80 437.71
  C 779.41 428.93 766.49 434.13 760.84 439.68
  Q 760.50 440.02 760.50 440.50
  L 760.50 475.25
  A 0.75 0.75 0.0 0 1 759.75 476.00
  L 755.50 476.00
  Q 754.75 476.00 754.75 475.25
  L 754.75 429.00
  Q 754.75 428.50 755.25 428.50
  L 759.78 428.50
  Q 760.32 428.50 760.30 429.04
  L 760.12 433.29
  Z"
/>
<path fill="#dcddde" d="
  M 866.73 473.26
  C 859.81 466.92 861.88 450.94 862.04 442.24
  C 862.32 426.76 877.81 426.39 888.78 428.72
  C 895.58 430.17 897.49 435.00 898.15 441.73
  C 898.97 450.09 900.36 469.57 892.85 474.12
  C 887.31 477.47 871.74 477.85 866.73 473.26
  Z
  M 871.44 469.81
  C 877.38 472.77 891.62 473.57 892.45 463.48
  Q 893.32 452.84 892.55 442.20
  C 892.16 436.90 890.36 434.32 884.90 433.36
  C 877.47 432.06 868.27 432.61 867.80 442.28
  C 867.47 449.11 865.76 466.99 871.44 469.81
  Z"
/>
<path fill="#dcddde" d="
  M 1001.62 452.37
  C 1001.05 459.84 1000.92 469.10 1009.81 470.81
  Q 1020.32 472.84 1029.71 467.81
  Q 1030.22 467.53 1030.49 468.05
  L 1032.35 471.61
  Q 1032.58 472.05 1032.18 472.34
  C 1025.81 476.94 1015.93 477.23 1008.26 475.77
  Q 996.31 473.49 996.07 460.98
  C 995.85 449.94 993.04 431.63 1007.00 428.73
  C 1025.67 424.85 1034.54 432.42 1032.58 451.46
  A 0.61 0.60 2.7 0 1 1031.99 451.99
  L 1002.02 452.01
  Q 1001.65 452.01 1001.62 452.37
  Z
  M 1002.08 446.49
  L 1026.88 446.49
  A 0.36 0.36 0.0 0 0 1027.24 446.13
  L 1027.24 443.84
  A 10.79 10.27 90.0 0 0 1016.97 433.05
  L 1011.99 433.05
  A 10.79 10.27 -90.0 0 0 1001.72 443.84
  L 1001.72 446.13
  A 0.36 0.36 0.0 0 0 1002.08 446.49
  Z"
/>
<path fill="#dcddde" d="
  M 1126.00 476.56
  C 1117.04 476.73 1108.33 475.32 1107.42 464.39
  C 1106.74 456.25 1104.70 436.05 1112.10 430.69
  C 1116.82 427.26 1126.00 427.67 1131.83 428.43
  C 1140.49 429.55 1142.59 434.51 1143.24 442.82
  Q 1144.02 452.76 1143.16 462.70
  C 1142.19 473.96 1136.64 476.37 1126.00 476.56
  Z
  M 1114.23 467.41
  C 1117.36 472.19 1123.80 471.87 1129.03 471.27
  C 1137.20 470.33 1137.42 465.91 1137.85 458.51
  C 1138.18 452.76 1139.56 436.29 1132.76 434.01
  C 1127.45 432.23 1114.77 431.81 1113.19 439.24
  C 1112.38 443.04 1111.10 462.65 1114.23 467.41
  Z"
/>
<path fill="#dcddde" d="
  M 1169.66 433.58
  Q 1176.59 428.05 1185.55 428.02
  Q 1186.25 428.02 1186.25 428.72
  L 1186.25 432.48
  A 0.64 0.64 0.0 0 1 1185.70 433.11
  C 1181.13 433.74 1172.04 436.04 1169.24 439.71
  A 1.34 1.33 64.3 0 0 1168.96 440.53
  L 1169.08 475.43
  A 0.57 0.57 0.0 0 1 1168.51 476.00
  L 1164.00 476.00
  Q 1163.50 476.00 1163.50 475.50
  L 1163.50 429.00
  Q 1163.50 428.50 1164.00 428.50
  L 1168.47 428.50
  A 0.64 0.63 1.3 0 1 1169.11 429.16
  L 1168.96 433.23
  Q 1168.92 434.17 1169.66 433.58
  Z"
/>
<path fill="#dcddde" d="
  M 1317.37 452.40
  C 1316.84 459.83 1316.63 468.96 1325.37 470.74
  Q 1335.99 472.90 1345.49 467.81
  A 0.55 0.54 -27.5 0 1 1346.23 468.04
  L 1348.12 471.64
  A 0.58 0.58 0.0 0 1 1347.93 472.38
  C 1341.40 476.80 1331.68 477.32 1324.23 475.90
  C 1316.32 474.39 1312.59 470.16 1312.00 462.25
  Q 1310.87 447.21 1312.44 438.74
  C 1314.62 427.03 1331.15 426.40 1339.75 429.24
  C 1348.55 432.14 1349.01 443.53 1348.61 451.22
  A 0.82 0.82 0.0 0 1 1347.79 452.00
  L 1317.80 452.00
  Q 1317.40 452.00 1317.37 452.40
  Z
  M 1317.82 446.49
  L 1342.62 446.49
  A 0.36 0.36 0.0 0 0 1342.98 446.13
  L 1342.98 443.83
  A 10.78 10.25 90.0 0 0 1332.73 433.05
  L 1327.71 433.05
  A 10.78 10.25 -90.0 0 0 1317.46 443.83
  L 1317.46 446.13
  A 0.36 0.36 0.0 0 0 1317.82 446.49
  Z"
/>
<path fill="#dcddde" d="
  M 827.57 470.64
  L 842.83 428.73
  A 0.35 0.35 0.0 0 1 843.16 428.50
  L 848.26 428.50
  A 0.35 0.35 0.0 0 1 848.59 428.97
  L 831.75 475.77
  A 0.35 0.35 0.0 0 1 831.42 476.00
  L 823.08 476.00
  A 0.35 0.35 0.0 0 1 822.75 475.77
  L 805.90 428.97
  A 0.35 0.35 0.0 0 1 806.23 428.50
  L 811.34 428.50
  A 0.35 0.35 0.0 0 1 811.67 428.73
  L 826.91 470.64
  A 0.35 0.35 0.0 0 0 827.57 470.64
  Z"
/>
<path fill="#dcddde" d="
  M 961.54 470.78
  L 976.81 428.70
  A 0.31 0.31 0.0 0 1 977.10 428.50
  L 982.32 428.50
  A 0.31 0.31 0.0 0 1 982.61 428.91
  L 965.74 475.79
  A 0.31 0.31 0.0 0 1 965.45 476.00
  L 957.05 476.00
  A 0.31 0.31 0.0 0 1 956.76 475.80
  L 939.88 428.92
  A 0.31 0.31 0.0 0 1 940.17 428.50
  L 945.37 428.50
  A 0.31 0.31 0.0 0 1 945.66 428.70
  L 960.96 470.78
  A 0.31 0.31 0.0 0 0 961.54 470.78
  Z"
/>
</svg>
